<?xml version="1.0" encoding="utf-8"?>
<!-- Generator: Adobe Illustrator 27.2.0, SVG Export Plug-In . SVG Version: 6.00 Build 0)  -->
<svg version="1.1" xmlns="http://www.w3.org/2000/svg" xmlns:xlink="http://www.w3.org/1999/xlink" x="0px" y="0px"
	 viewBox="0 0 549 490.2" style="enable-background:new 0 0 549 490.2;" xml:space="preserve">
<style type="text/css">
	.st0{fill:#FFFFFF;}
</style>
<g id="Layer_3">
	<path d="M498.1,490.2H50.9C22.8,490.2,0,467.4,0,439.3V50.9C0,22.8,22.8,0,50.9,0h447.3C526.2,0,549,22.8,549,50.9v388.5
		C549,467.4,526.2,490.2,498.1,490.2z"/>
</g>
<g id="Layer_2_1_">
	<g>
		<path class="st0" d="M295.4,389"/>
		<polygon class="st0" points="444.6,324.9 444.6,384.3 512.3,361.5 512.3,302.1 		"/>
		<polygon class="st0" points="418.6,393.1 418.6,392.9 418.7,392.9 418.7,123.2 351.1,146.1 351.1,345.1 295.4,363.9 295.4,296.2 
			227.7,319 227.7,457.4 		"/>
		<polygon class="st0" points="418.7,99.1 418.7,32.8 351.1,32.8 351.1,121.9 		"/>
		<polygon class="st0" points="225.8,32.8 165.4,172.2 104.4,32.8 104.4,32.8 104.4,32.8 102.5,32.8 36.7,32.8 36.7,392.9 
			104.4,415.8 104.4,201.3 155.4,317.8 178.5,310 227.7,198 227.7,294.1 295.4,271.3 295.4,32.8 		"/>
	</g>
</g>
</svg>
